<svg width="24" height="24" viewBox="0 0 24 24" fill="none" xmlns="http://www.w3.org/2000/svg">
<path d="M23.2511 4.2308H11.8321C11.488 5.79731 10.089 6.97336 8.42065 6.97336C6.75227 6.97336 5.35333 5.79736 5.00918 4.2308H0.751099C0.33691 4.2308 0.00109863 3.89498 0.00109863 3.4808C0.00109863 3.06661 0.33691 2.7308 0.751099 2.7308H5.00955C5.35436 1.16508 6.75522 -0.0117188 8.42065 -0.0117188C10.087 -0.0117188 11.4872 1.16489 11.8318 2.7308H23.2511C23.6653 2.7308 24.0011 3.06661 24.0011 3.4808C24.0011 3.89498 23.6653 4.2308 23.2511 4.2308ZM10.4131 3.48277L10.4131 3.4747C10.4098 2.37937 9.51602 1.48833 8.42065 1.48833C7.32682 1.48833 6.433 2.37816 6.42827 3.47297L6.42813 3.48398C6.42986 4.58119 7.32302 5.47341 8.42065 5.47341C9.5178 5.47341 10.4107 4.58208 10.4132 3.48553L10.4131 3.48277ZM0.751099 19.769H5.00955C5.35441 18.2033 6.75522 17.0265 8.42065 17.0265C10.087 17.0265 11.4872 18.2031 11.8318 19.769H23.2511C23.6653 19.769 24.0011 20.1047 24.0011 20.519C24.0011 20.9332 23.6653 21.269 23.2511 21.269H11.8321C11.488 22.8355 10.089 24.0115 8.42065 24.0115C6.75227 24.0115 5.35333 22.8355 5.00918 21.269H0.751099C0.33691 21.269 0.00109863 20.9332 0.00109863 20.519C0.00109863 20.1047 0.33691 19.769 0.751099 19.769ZM8.42065 22.5115C9.5178 22.5115 10.4107 21.6202 10.4132 20.5237L10.4131 20.5209L10.4131 20.5129C10.4098 19.4175 9.51602 18.5265 8.42065 18.5265C7.32682 18.5265 6.433 19.4163 6.42827 20.511L6.42813 20.5221C6.42972 21.6194 7.32293 22.5115 8.42065 22.5115ZM0.751099 11.2499H12.1701C12.5142 9.68339 13.9132 8.50739 15.5816 8.50739C17.2499 8.50739 18.6489 9.68339 18.993 11.2499H23.2511C23.6653 11.2499 24.0011 11.5857 24.0011 11.9999C24.0011 12.4141 23.6653 12.7499 23.2511 12.7499H18.9926C18.6478 14.3156 17.247 15.4924 15.5816 15.4924C13.9152 15.4924 12.515 14.3158 12.1704 12.7499H0.751099C0.33691 12.7499 0.00109863 12.4141 0.00109863 11.9999C0.00109863 11.5857 0.33691 11.2499 0.751099 11.2499ZM13.5891 11.9979L13.5891 12.006C13.5924 13.1013 14.4862 13.9924 15.5816 13.9924C16.6754 13.9924 17.5692 13.1025 17.5739 12.0078L17.5741 11.9968C17.5724 10.8995 16.6792 10.0074 15.5816 10.0074C14.4844 10.0074 13.5915 10.8987 13.589 11.9953L13.5891 11.9979Z" fill="white"/>
</svg>
