<svg width="48" height="48" viewBox="0 0 48 48" fill="none" xmlns="http://www.w3.org/2000/svg">
<path d="M48 24C48 37.2548 37.2548 48 24 48C10.7452 48 0 37.2548 0 24C0 10.7452 10.7452 0 24 0C37.2548 0 48 10.7452 48 24Z" fill="#0BB783"/>
<path d="M22.6244 29.1856C22.5549 29.2555 22.4723 29.311 22.3813 29.3488C22.2903 29.3867 22.1927 29.4062 22.0941 29.4062C21.9956 29.4062 21.898 29.3867 21.807 29.3488C21.716 29.311 21.6334 29.2555 21.5639 29.1856L17.3294 24.9504C17.1185 24.7394 17 24.4533 17 24.155C17 23.8567 17.1185 23.5706 17.3294 23.3596L17.8596 22.8294C18.0706 22.6185 18.3567 22.5 18.655 22.5C18.9533 22.5 19.2394 22.6185 19.4504 22.8294L22.0941 25.4731L29.2379 18.3294C29.4489 18.1185 29.735 18 30.0333 18C30.3316 18 30.6177 18.1185 30.8286 18.3294L31.3589 18.8596C31.5698 19.0706 31.6883 19.3567 31.6883 19.655C31.6883 19.9533 31.5698 20.2394 31.3589 20.4504L22.6244 29.1856Z" fill="white"/>
</svg>
