<svg width="51" height="44" viewBox="0 0 51 44" fill="none" xmlns="http://www.w3.org/2000/svg">
<path d="M26.4232 15.53C23.595 15.53 21.3022 17.8227 21.3022 20.6509C21.3022 23.4791 23.5949 25.7718 26.4232 25.7718C29.2513 25.7718 31.5441 23.4792 31.5441 20.6509C31.5441 17.8227 29.2514 15.53 26.4232 15.53ZM26.4232 23.3332C24.9417 23.3332 23.7408 22.1323 23.7408 20.6508C23.7408 19.1694 24.9417 17.9684 26.4232 17.9684C27.9046 17.9684 29.1055 19.1694 29.1055 20.6508C29.1055 22.1323 27.9046 23.3332 26.4232 23.3332Z" fill="white"/>
<path d="M45.8457 3.8251L12.56 0.0455061C11.9213 -0.0452902 11.2706 0.000117499 10.6507 0.178744C10.0308 0.357371 9.45575 0.665172 8.96329 1.08192C8.47041 1.4641 8.05976 1.94187 7.75598 2.48659C7.45219 3.03131 7.26151 3.63175 7.19537 4.25194L6.5858 9.25091H4.69583C2.01344 9.25091 0.00164749 11.6284 0.00164749 14.3108V39.2445C-0.065914 41.8024 1.95288 43.9308 4.51088 43.9984C4.57249 44 4.63422 44.0004 4.69583 43.9996H38.1643C40.8467 43.9996 43.2852 41.9269 43.2852 39.2445V38.2691C44.1168 38.1084 44.9058 37.7762 45.6018 37.2937C46.5895 36.4621 47.222 35.2844 47.3697 34.0018L50.1741 9.25091C50.4599 6.56233 48.5305 4.14377 45.8457 3.8251ZM40.8467 39.2445C40.8467 40.5857 39.5055 41.5611 38.1643 41.5611H4.69583C3.48427 41.5966 2.4733 40.6433 2.43771 39.4318C2.43585 39.3693 2.43666 39.3068 2.44016 39.2445V34.7333L11.8894 27.7835C13.0246 26.912 14.6234 26.9895 15.6692 27.9664L22.3141 33.8188C23.3232 34.6661 24.5935 35.1397 25.911 35.16C26.9411 35.1726 27.9543 34.8982 28.8372 34.3675L40.8468 27.4177V39.2445H40.8467ZM40.8467 24.5525L27.5568 32.2947C27.0001 32.6246 26.3544 32.7724 25.7096 32.7178C25.0649 32.6632 24.4532 32.4087 23.96 31.99L17.2541 26.0765C15.3322 24.4251 12.523 24.3238 10.4872 25.8326L2.44016 31.6851V14.3108C2.44016 12.9696 3.35464 11.6894 4.69583 11.6894H38.1643C39.5972 11.7488 40.7544 12.8797 40.8467 14.3108V24.5525ZM47.7379 8.92174C47.7371 8.92979 47.7364 8.93795 47.7354 8.94601L44.8702 33.6969C44.8726 34.0135 44.8024 34.3265 44.6651 34.6119C44.5277 34.8972 44.3267 35.1473 44.0777 35.3428C43.8338 35.5867 43.2851 35.7086 43.2851 35.8306V14.3108C43.1889 11.5335 40.9424 9.3138 38.1642 9.25091H9.0242L9.57286 4.49581C9.69188 3.88007 10.0139 3.32199 10.4873 2.91074C11.022 2.5411 11.6685 2.36869 12.3163 2.42299L45.541 6.26362C46.8815 6.39092 47.8652 7.58101 47.7379 8.92174Z" fill="white"/>
</svg>
