<svg width="24" height="24" viewBox="0 0 24 24" fill="none" xmlns="http://www.w3.org/2000/svg">
<path d="M4.5 6L5.96667 7.1C6.31286 7.35964 6.73393 7.5 7.16667 7.5H10.525C11.1225 7.5 11.6688 7.83761 11.936 8.37206V8.37206C12.2658 9.03161 12.0947 9.83161 11.524 10.2986L9.52401 11.9349C7.95007 13.2227 7.13556 15.22 7.36014 17.2412L7.38007 17.4206C7.45966 18.1369 7.63567 18.8392 7.90333 19.5083L8.5 21" stroke="white"/>
<path d="M21.5 10.5L18.2619 9.96032C16.9083 9.73471 15.7347 10.9083 15.9603 12.2619L16.0948 13.069C16.3357 14.514 15.6059 15.9471 14.2956 16.6022V16.6022C13.2465 17.1268 12.7024 18.3097 12.9869 19.4476L13.5 21.5" stroke="white"/>
<circle cx="10" cy="10" r="9.5" transform="matrix(-1 0 0 1 22 2)" stroke="white"/>
</svg>
