<svg width="18" height="20" viewBox="0 0 18 20" fill="none" xmlns="http://www.w3.org/2000/svg">
<path d="M11.4474 8.59375C11.4474 8.16227 11.14 7.8125 10.7609 7.8125H3.69011C3.31097 7.8125 3.00363 8.16227 3.00363 8.59375C3.00363 9.02523 3.31097 9.375 3.69011 9.375H10.7609C11.14 9.375 11.4474 9.02523 11.4474 8.59375ZM3.69011 10.9375C3.31097 10.9375 3.00363 11.2873 3.00363 11.7187C3.00363 12.1502 3.31097 12.5 3.69011 12.5H7.98444C8.36358 12.5 8.67092 12.1502 8.67092 11.7187C8.67092 11.2873 8.36358 10.9375 7.98444 10.9375H3.69011Z" fill="white"/>
<path d="M6.12436 18.4375H3.33551C2.41591 18.4375 1.66775 17.7365 1.66775 16.875V3.125C1.66775 2.26344 2.41591 1.5625 3.33551 1.5625H13.5876C14.5072 1.5625 15.2553 2.26344 15.2553 3.125V7.92968C15.2553 8.36117 15.6286 8.71093 16.0892 8.71093C16.5497 8.71093 16.9231 8.36117 16.9231 7.92968V3.125C16.9231 1.40187 15.4268 0 13.5876 0H3.33551C1.49631 0 0 1.40187 0 3.125V16.875C0 18.5981 1.49631 20 3.33551 20H6.12436C6.58491 20 6.95824 19.6502 6.95824 19.2187C6.95824 18.7872 6.58491 18.4375 6.12436 18.4375Z" fill="white"/>
<path d="M17.0156 11.2705C16.1133 10.3524 14.6454 10.3524 13.7437 11.2699L9.50909 15.5698C9.41917 15.6611 9.3528 15.7736 9.31587 15.8973L8.39365 18.987C8.3535 19.1214 8.34958 19.2644 8.38229 19.401C8.415 19.5375 8.48313 19.6626 8.57958 19.7632C8.67603 19.8638 8.79725 19.9362 8.93059 19.9729C9.06393 20.0095 9.20449 20.0091 9.33758 19.9715L12.4508 19.0939C12.5789 19.0578 12.6957 18.9886 12.7898 18.893L17.0156 14.6008C17.9178 13.6826 17.9178 12.1887 17.0156 11.2705ZM11.8436 17.6362L10.2773 18.0777L10.7357 16.542L13.593 13.6407L14.684 14.751L11.8436 17.6362ZM15.9253 13.4902L15.7759 13.642L14.6851 12.5319L14.834 12.3807C15.1347 12.0746 15.6241 12.0746 15.9248 12.3807C16.2255 12.6867 16.2255 13.1847 15.9253 13.4902ZM11.7928 4.61542H3.84819C3.42219 4.61542 3.07687 4.96683 3.07687 5.40035C3.07687 5.83387 3.42219 6.18528 3.84819 6.18528H11.7928C12.2188 6.18528 12.5641 5.83387 12.5641 5.40035C12.5641 4.96683 12.2188 4.61542 11.7928 4.61542Z" fill="white"/>
</svg>
