<svg width="20" height="22" viewBox="0 0 20 22" fill="none" xmlns="http://www.w3.org/2000/svg">
<path d="M5.48843 16.2206L6.56339 17.1288L7.99962 15.0449M7.51068 10.0958L5.48843 12.118M5.48843 10.0958L7.51068 12.118M11.0784 16.0868H14.172M11.0784 11.1069H14.172M7.51068 4.87122L5.48843 6.89346M5.48843 4.87122L7.51068 6.89346M11.0784 5.88236H14.172" stroke="white" stroke-width="1.5" stroke-miterlimit="10" stroke-linecap="round" stroke-linejoin="round"/>
<path d="M18.6923 14.0006V3.14284C18.6923 1.95941 17.6395 1 16.3409 1H3.35145C2.05276 1 1 1.95936 1 3.14284V18.8572C1 20.0406 2.05276 21 3.35145 21H16.3409C17.6395 21 18.6923 20.0406 18.6923 18.8572V18.2379" stroke="white" stroke-width="1.3" stroke-miterlimit="10" stroke-linecap="round" stroke-linejoin="round"/>
</svg>
