<svg width="48" height="48" viewBox="0 0 48 48" fill="none" xmlns="http://www.w3.org/2000/svg">
<path d="M48 24C48 37.2548 37.2548 48 24 48C10.7452 48 0 37.2548 0 24C0 10.7452 10.7452 0 24 0C37.2548 0 48 10.7452 48 24Z" fill="#F7BF39"/>
<path d="M17.251 26.3633C17.1524 26.3636 17.0548 26.3444 16.9637 26.3068C16.8725 26.2692 16.7898 26.214 16.7201 26.1443C16.6504 26.0746 16.5952 25.9918 16.5576 25.9007C16.52 25.8096 16.5008 25.712 16.5011 25.6134L16.4998 24C16.4998 23.7017 16.7201 23.5 16.7201 23.5C16.7201 23.5 16.7729 23.3171 17.0713 23.3171C17.3696 23.3171 17.6264 23.3171 17.6264 23.3171C17.9247 23.3171 18.1565 23.3171 18.5005 23.3171C18.8445 23.3171 18.6172 23.3171 19.1211 23.3171H19.5195L29.6039 23.3632C29.9022 23.3633 30.1883 23.4818 30.3993 23.6927C30.6102 23.9037 30.7287 24.1897 30.7288 24.488V25.2379C30.7287 25.5362 30.6102 25.8223 30.3993 26.0333C30.1883 26.2442 29.9023 26.3627 29.6039 26.3628L17.251 26.3633Z" fill="white"/>
</svg>
