<svg xmlns="http://www.w3.org/2000/svg" width="32" height="32" viewBox="0 0 32 32" fill="none">
<path d="M15.3438 30.4375C15.3438 31.1594 14.7531 31.75 14.0312 31.75H6.15625C3.25563 31.75 0.90625 29.4006 0.90625 26.5V5.5C0.90625 2.59938 3.25563 0.25 6.15625 0.25H24.5312C27.4319 0.25 29.7812 2.59938 29.7812 5.5V16C29.7812 16.7219 29.1906 17.3125 28.4688 17.3125C27.7469 17.3125 27.1562 16.7219 27.1562 16V5.5C27.1562 4.05625 25.975 2.875 24.5312 2.875H6.15625C4.7125 2.875 3.53125 4.05625 3.53125 5.5V26.5C3.53125 27.9438 4.7125 29.125 6.15625 29.125H14.0312C14.7531 29.125 15.3438 29.7156 15.3438 30.4375ZM23.1794 8.125C23.1794 7.40312 22.5887 6.8125 21.8669 6.8125H8.78125C8.05937 6.8125 7.46875 7.40312 7.46875 8.125C7.46875 8.84688 8.05937 9.4375 8.78125 9.4375H21.8669C22.5887 9.4375 23.1794 8.84688 23.1794 8.125ZM20.5544 14.6875C20.5544 13.9656 19.9637 13.375 19.2419 13.375H8.78125C8.05937 13.375 7.46875 13.9656 7.46875 14.6875C7.46875 15.4094 8.05937 16 8.78125 16H19.2419C19.9637 16 20.5544 15.4094 20.5544 14.6875ZM8.78125 19.9375C8.05937 19.9375 7.46875 20.5281 7.46875 21.25C7.46875 21.9719 8.05937 22.5625 8.78125 22.5625H12.6794C13.4013 22.5625 13.9919 21.9719 13.9919 21.25C13.9919 20.5281 13.4013 19.9375 12.6794 19.9375H8.78125ZM30.7131 21.6306C30.5917 21.509 30.4475 21.4124 30.2887 21.3466C30.1299 21.2807 29.9597 21.2468 29.7878 21.2468C29.6159 21.2468 29.4457 21.2807 29.2869 21.3466C29.1282 21.4124 28.9839 21.509 28.8625 21.6306L21.9194 28.5737L18.9137 25.5681C18.7922 25.4466 18.648 25.3502 18.4892 25.2845C18.3304 25.2187 18.1603 25.1848 17.9884 25.1848C17.8166 25.1848 17.6464 25.2187 17.4877 25.2845C17.3289 25.3502 17.1846 25.4466 17.0631 25.5681C16.9416 25.6896 16.8452 25.8339 16.7795 25.9927C16.7137 26.1514 16.6798 26.3216 16.6798 26.4934C16.6798 26.6653 16.7137 26.8354 16.7795 26.9942C16.8452 27.153 16.9416 27.2972 17.0631 27.4188L21.0006 31.3563C21.2631 31.6188 21.5913 31.7369 21.9325 31.7369C22.2738 31.7369 22.6019 31.6056 22.8644 31.3563L30.7394 23.4813C30.861 23.3598 30.9576 23.2156 31.0234 23.0568C31.0893 22.898 31.1232 22.7278 31.1232 22.5559C31.1232 22.384 31.0893 22.2138 31.0234 22.0551C30.9576 21.8963 30.861 21.7521 30.7394 21.6306H30.7131Z" fill="white"/>
</svg>