<svg xmlns="http://www.w3.org/2000/svg" version="1.1" xmlns:xlink="http://www.w3.org/1999/xlink" width="512" height="512" x="0" y="0" viewBox="0 0 128 128" style="enable-background:new 0 0 512 512" xml:space="preserve" class="hovered-paths"><g><path fill="#ffdb80" d="M109.583 15H108v95a10.011 10.011 0 0 1-10 10H24.875v2.5l2.625 3.125 82.375-3.875 3.625-2z" opacity="1" data-original="#ffdb80" class=""></path><path fill="#2d4356" d="m115.993 117.698-5.24-104A6.005 6.005 0 0 0 108 8.958v29.604l3.998 79.337a2.039 2.039 0 0 1-1.9 2.099l-80.76 4a2.02 2.02 0 0 1-2.096-1.897L27.136 120h-4.005l.116 2.302A6.009 6.009 0 0 0 29.236 128c.1 0 80.973-4.003 81.06-4.008a6.11 6.11 0 0 0 5.697-6.294z" opacity="1" data-original="#2d4356" class="hovered-path"></path><path fill="#2d4356" d="M98 0H18a6.005 6.005 0 0 0-6 6v104a6.005 6.005 0 0 0 6 6h80a6.005 6.005 0 0 0 6-6V6a6.005 6.005 0 0 0-6-6zm2 110a2.006 2.006 0 0 1-2 2H18a2.006 2.006 0 0 1-2-2V6a2.006 2.006 0 0 1 2-2h80a2.006 2.006 0 0 1 2 2z" opacity="1" data-original="#2d4356" class="hovered-path"></path><path fill="#e1ebf4" d="M98 4H18a2.006 2.006 0 0 0-2 2v104a2.006 2.006 0 0 0 2 2h80a2.006 2.006 0 0 0 2-2V6a2.006 2.006 0 0 0-2-2zM32 28.3a8 8 0 1 1 8-8 8.01 8.01 0 0 1-8 8z" opacity="1" data-original="#e1ebf4" class=""></path><g fill="#2d4356"><path d="M90 36H26a2 2 0 0 0 0 4h64a2 2 0 1 0 0-4zM26 50h35.983a2 2 0 0 0 0-4H26a2 2 0 0 0 0 4zM90 56H26a2 2 0 0 0 0 4h64a2 2 0 1 0 0-4zM90 66H26a2 2 0 0 0 0 4h64a2 2 0 1 0 0-4zM26 80h42.987a2 2 0 0 0 0-4H26a2 2 0 0 0 0 4zM90 76H79.033a2 2 0 0 0 0 4H90a2 2 0 1 0 0-4zM36.967 96H26a2 2 0 0 0 0 4h10.967a2 2 0 1 0 0-4zM90 46H79.033a2 2 0 0 0 0 4H90a2 2 0 1 0 0-4zM90 18.296H79.033a2 2 0 0 0 0 4H90a2 2 0 0 0 0-4zM90 86H26a2 2 0 0 0 0 4h64a2 2 0 1 0 0-4zM90 96H46.013a2 2 0 1 0 0 4H90a2 2 0 1 0 0-4zM32 12.3a8 8 0 1 0 8 8 8.01 8.01 0 0 0-8-8zm0 12a4 4 0 1 1 4-4 4.005 4.005 0 0 1-4 4z" fill="#2d4356" opacity="1" data-original="#2d4356" class="hovered-path"></path></g><path fill="#9fa5aa50" d="M100 108v2a2.006 2.006 0 0 1-2 2H18a2.006 2.006 0 0 1-2-2v-2a2.006 2.006 0 0 0 2 2h80a2.006 2.006 0 0 0 2-2z" opacity="1" data-original="#9fa5aa50"></path><path fill="#fff" d="M100 6v2a2.006 2.006 0 0 0-2-2H18a2.006 2.006 0 0 0-2 2V6a2.006 2.006 0 0 1 2-2h80a2.006 2.006 0 0 1 2 2z" opacity=".5"></path></g></svg>