<svg width="42" height="42" viewBox="0 0 42 42" fill="none" xmlns="http://www.w3.org/2000/svg">
<path d="M26.6901 34.9932L26.6592 33.9937L26.6901 34.9932ZM29.6149 34.2774L30.5531 34.6234L29.6149 34.2774ZM29.6149 7.7226L30.5531 7.3766L29.6149 7.7226ZM23.75 21C23.75 17.1848 25.3922 13.7545 28.0115 11.375L26.6667 9.89463C23.6477 12.6372 21.75 16.5977 21.75 21H23.75ZM28.0115 30.625C25.3922 28.2455 23.75 24.8152 23.75 21H21.75C21.75 25.4023 23.6477 29.3628 26.6667 32.1054L28.0115 30.625ZM26.6592 33.9937C26.5233 33.9979 26.3869 34 26.25 34V36C26.4075 36 26.5645 35.9976 26.7209 35.9927L26.6592 33.9937ZM26.25 34C19.0703 34 13.25 28.1797 13.25 21H11.25C11.25 29.2843 17.9657 36 26.25 36V34ZM13.25 21C13.25 13.8203 19.0703 8 26.25 8V6C17.9657 6 11.25 12.7157 11.25 21H13.25ZM26.25 8C26.3869 8 26.5233 8.00211 26.6592 8.00631L26.7209 6.00726C26.5645 6.00243 26.4075 6 26.25 6V8ZM26.6667 32.1054C27.5263 32.8863 28.0926 33.4037 28.4289 33.8005C28.8132 34.2539 28.5818 34.1887 28.6767 33.9314L30.5531 34.6234C30.8814 33.7333 30.3484 32.9719 29.9546 32.5073C29.5129 31.9861 28.8247 31.3638 28.0115 30.625L26.6667 32.1054ZM26.7209 35.9927C27.5801 35.9662 28.352 35.9456 28.9288 35.8334C29.5192 35.7185 30.252 35.44 30.5531 34.6234L28.6767 33.9314C28.7445 33.7476 28.912 33.7992 28.5469 33.8702C28.1682 33.9439 27.5944 33.9648 26.6592 33.9937L26.7209 35.9927ZM28.0115 11.375C28.8247 10.6362 29.5129 10.0139 29.9546 9.49265C30.3484 9.02805 30.8814 8.26665 30.5531 7.3766L28.6767 8.0686C28.5818 7.81126 28.8132 7.74613 28.4289 8.19954C28.0926 8.59628 27.5263 9.1137 26.6667 9.89463L28.0115 11.375ZM26.6592 8.00631C27.5944 8.03518 28.1682 8.05613 28.5469 8.1298C28.912 8.20082 28.7445 8.25245 28.6767 8.0686L30.5531 7.3766C30.252 6.56004 29.5192 6.28146 28.9288 6.1666C28.352 6.05439 27.5801 6.03379 26.7209 6.00726L26.6592 8.00631Z" fill="white"/>
</svg>
